<?xml version="1.0" standalone="no"?>
<!DOCTYPE svg PUBLIC "-//W3C//DTD SVG 20010904//EN"
 "http://www.w3.org/TR/2001/REC-SVG-20010904/DTD/svg10.dtd">
<svg version="1.0" xmlns="http://www.w3.org/2000/svg"
 width="736.000000pt" height="736.000000pt" viewBox="0 0 736.000000 736.000000"
 preserveAspectRatio="xMidYMid meet">

<g transform="translate(0.000000,736.000000) scale(0.100000,-0.100000)"
fill="#000000" stroke="none">
<path d="M1081 6038 c-50 -27 -101 -218 -101 -378 0 -103 16 -195 61 -352 41
-141 43 -243 8 -393 -17 -72 -23 -130 -23 -210 0 -121 -9 -91 114 -395 42
-102 43 -109 50 -255 8 -156 19 -202 63 -271 29 -47 107 -125 163 -166 70 -50
98 -126 124 -338 13 -112 40 -164 153 -296 156 -184 169 -207 237 -399 23 -66
55 -145 72 -176 36 -70 111 -145 203 -207 183 -123 254 -195 406 -419 104
-151 169 -222 242 -261 46 -23 63 -27 142 -27 106 1 165 21 303 109 123 77
197 112 292 137 73 18 90 20 141 10 103 -21 168 -49 313 -135 174 -104 244
-130 341 -124 131 9 217 75 346 267 96 141 209 281 267 329 26 21 88 67 139
101 172 117 216 177 293 396 53 152 85 212 167 314 69 87 73 95 199 426 91
241 99 255 174 315 153 121 189 196 200 415 8 162 8 160 92 360 88 208 95 275
52 484 -39 185 -37 265 9 427 46 159 57 225 57 330 0 163 -50 355 -101 382
-37 20 -183 10 -244 -17 -67 -29 -92 -56 -188 -191 -45 -63 -131 -165 -192
-226 -143 -145 -184 -166 -383 -194 -131 -19 -149 -20 -195 -6 -125 35 -224
26 -383 -38 l-81 -33 -29 21 c-21 15 -43 21 -81 20 -51 0 -52 1 -69 38 -19 42
-85 108 -108 108 -7 0 -25 15 -39 33 -13 18 -52 59 -85 91 -86 84 -383 318
-435 344 -58 29 -116 28 -176 -3 -99 -50 -472 -364 -527 -442 -8 -13 -21 -23
-29 -23 -23 0 -80 -56 -105 -103 -23 -43 -25 -44 -61 -40 -28 4 -49 -1 -82
-19 l-44 -25 -83 34 c-151 63 -251 73 -377 37 -46 -14 -64 -13 -195 6 -197 28
-239 49 -383 194 -61 61 -140 153 -175 205 -133 194 -186 231 -335 238 -62 3
-98 0 -114 -9z m1078 -1422 c10 -11 7 -24 -10 -58 -36 -72 -119 -201 -147
-230 -38 -40 -17 -34 44 13 60 46 127 130 155 195 11 24 26 44 33 44 24 0 110
-63 183 -134 87 -85 87 -85 1 -158 -222 -189 -436 -285 -663 -295 -111 -5
-235 12 -242 32 -1 6 16 18 40 27 144 60 433 352 539 547 18 33 48 41 67 17z
m3118 -29 c30 -62 134 -197 232 -300 96 -101 219 -198 300 -235 62 -29 58 -34
-43 -52 -195 -36 -446 25 -656 161 -80 51 -226 173 -234 196 -12 31 206 223
252 223 5 0 23 -28 41 -62 34 -70 83 -128 151 -182 53 -43 74 -47 38 -8 -29
30 -76 104 -132 203 -34 61 -35 68 -21 83 28 27 50 19 72 -27z m-2719 -320
c24 -40 32 -65 32 -101 0 -51 -27 -183 -39 -190 -10 -7 -56 25 -79 54 -50 66
-92 134 -92 152 0 24 107 138 129 138 9 0 31 -24 49 -53z m2365 -6 c32 -33 57
-68 57 -79 0 -18 -32 -72 -88 -148 -13 -16 -36 -38 -53 -48 -29 -17 -29 -17
-38 7 -14 36 -31 135 -31 180 0 46 56 147 81 147 9 0 41 -27 72 -59z m-2253
-156 c26 -42 24 -60 -21 -208 -17 -54 -29 -103 -27 -109 5 -14 61 84 88 153
27 69 49 99 71 99 20 0 119 -37 131 -49 10 -9 -28 -142 -63 -220 -16 -35 -27
-66 -25 -68 7 -8 87 111 123 185 36 73 51 84 73 57 27 -33 -92 -227 -207 -336
-75 -71 -178 -149 -196 -149 -19 0 -52 112 -52 177 0 29 -4 53 -8 53 -18 0
-84 -197 -102 -301 -5 -34 -10 -38 -83 -69 -92 -39 -244 -91 -249 -86 -2 2 16
15 41 30 196 115 348 383 437 773 14 58 29 103 36 103 6 0 21 -16 33 -35z
m2080 -27 c19 -101 77 -291 116 -386 77 -186 187 -333 310 -414 35 -23 62 -43
60 -45 -4 -5 -162 51 -247 87 l-77 32 -11 61 c-15 76 -57 210 -79 252 l-16 30
-7 -68 c-9 -79 -37 -167 -55 -167 -6 0 -38 19 -70 43 -144 106 -246 223 -311
354 -30 60 -34 75 -23 88 23 28 38 16 74 -57 34 -71 114 -193 122 -186 2 3
-10 38 -28 79 -17 40 -39 103 -49 139 -17 56 -17 66 -5 76 25 18 123 47 138
41 9 -3 25 -27 38 -54 110 -238 136 -265 79 -79 -37 118 -41 170 -15 209 28
42 42 34 56 -35z m-2655 -68 c7 -23 -1 -40 -19 -40 -7 0 -32 -13 -54 -30 -23
-16 -46 -30 -52 -30 -13 0 -45 63 -34 67 5 2 38 14 74 27 81 30 77 30 85 6z
m3270 -12 c33 -11 61 -21 63 -23 6 -6 -29 -65 -38 -65 -6 0 -29 14 -52 30 -22
17 -47 30 -54 30 -18 0 -26 17 -19 41 5 14 12 18 23 14 10 -3 44 -15 77 -27z
m-3183 -85 c56 -60 92 -173 56 -173 -15 0 -108 158 -108 183 0 25 23 21 52
-10z m3048 10 c0 -16 -21 -58 -76 -150 -24 -41 -44 -43 -44 -4 0 40 24 94 61
136 34 38 59 46 59 18z m-3127 -37 c10 -23 38 -71 63 -105 l45 -62 -42 -47
c-24 -26 -46 -48 -49 -50 -6 -2 -59 86 -106 177 l-28 54 42 38 c23 22 45 39
49 39 4 0 16 -20 26 -44z m3227 8 c22 -20 40 -40 40 -45 0 -15 -122 -230 -129
-227 -4 2 -26 24 -50 50 l-42 47 45 62 c25 34 53 82 63 105 10 24 21 44 25 44
5 0 26 -16 48 -36z m-2107 6 c64 -19 72 -42 72 -216 0 -148 -1 -153 -24 -178
-23 -24 -31 -26 -107 -26 -94 0 -128 10 -144 40 -17 32 -13 132 10 250 11 58
20 106 20 107 0 1 10 12 23 24 24 22 69 22 150 -1z m1061 5 c28 -21 56 -143
63 -270 7 -144 3 -149 -136 -153 -92 -4 -97 -3 -120 22 -23 24 -25 36 -29 140
-8 197 6 237 93 261 66 18 106 18 129 0z m-754 -71 c27 -8 62 -26 78 -39 45
-37 55 -73 50 -173 -5 -114 -20 -137 -96 -153 -58 -12 -189 -8 -212 6 -10 6
-12 37 -7 139 7 134 19 210 39 234 13 15 66 11 148 -14z m454 4 c27 -43 52
-336 30 -358 -16 -16 -103 -23 -179 -15 -53 5 -73 13 -98 35 -30 27 -31 30
-35 126 -3 86 0 103 17 131 27 43 59 62 139 84 89 24 109 23 126 -3z m-1647
-187 c53 -88 53 -110 0 -184 -72 -100 -69 -100 -120 -20 -82 126 -81 122 -41
174 20 24 39 45 43 47 4 1 13 -14 19 -35 11 -37 70 -118 79 -110 2 3 -7 28
-21 55 -14 28 -29 69 -32 92 -7 40 -6 42 17 38 17 -2 34 -20 56 -57z m2759 18
c-4 -22 -18 -63 -32 -91 -14 -27 -23 -52 -21 -55 9 -8 68 73 79 110 6 20 14
37 18 37 4 0 24 -21 43 -46 42 -53 43 -49 -40 -177 -51 -79 -49 -80 -119 19
-50 69 -52 81 -24 142 30 66 59 102 82 102 18 0 20 -4 14 -41z m-2542 -144 c3
-27 18 -74 32 -102 32 -66 158 -202 238 -256 137 -93 185 -158 194 -262 4 -61
4 -62 -33 -92 -20 -17 -52 -39 -70 -49 l-33 -17 -51 42 c-63 53 -157 169 -213
263 -23 39 -44 66 -46 60 -5 -17 92 -215 147 -297 51 -75 51 -76 20 -58 -67
39 -153 161 -196 281 -62 170 -70 349 -22 526 13 48 23 36 33 -39z m2302 -32
c23 -111 15 -290 -19 -399 -51 -165 -137 -293 -235 -348 -7 -5 8 23 34 61 26
37 71 118 99 178 84 178 83 185 -7 45 -68 -106 -143 -196 -203 -246 l-47 -38
-33 18 c-18 10 -49 31 -69 48 -31 26 -36 35 -36 73 0 106 57 188 195 282 71
48 192 173 229 236 22 36 54 148 56 192 1 26 22 -31 36 -102z m-1208 -225 c16
-16 15 -231 -1 -278 -11 -32 -15 -35 -52 -35 -38 0 -41 3 -63 46 -30 61 -51
216 -34 253 11 24 17 26 75 26 36 0 68 -5 75 -12z m212 -7 c23 -45 -1 -214
-41 -279 -17 -29 -24 -33 -57 -30 -32 3 -38 7 -49 38 -16 47 -17 262 -1 278 7
7 39 12 75 12 51 0 64 -3 73 -19z m-415 -165 l0 -169 -43 -12 c-39 -12 -45
-11 -61 6 -30 32 -54 128 -59 231 -4 95 -4 98 19 107 13 6 51 9 84 8 l60 -2 0
-169z m615 161 c23 -12 25 -17 22 -77 -6 -127 -31 -227 -66 -262 -15 -15 -20
-15 -61 -1 l-45 15 0 162 c0 90 3 166 7 169 11 12 117 7 143 -6z m-842 -20
c15 -17 26 -227 18 -310 -8 -74 -26 -101 -60 -91 -36 11 -56 36 -96 119 -50
105 -79 224 -61 253 8 13 114 40 162 41 15 1 31 -5 37 -12z m1074 -9 c26 -6
49 -16 51 -22 8 -20 -12 -133 -33 -187 -47 -125 -106 -198 -149 -184 -31 10
-36 44 -35 224 2 210 2 210 166 169z"/>
<path d="M1443 1009 c-24 -25 -43 -53 -43 -62 0 -34 -19 -25 -22 10 l-4 38
-14 -30 c-8 -16 -14 -60 -15 -97 0 -38 -3 -68 -6 -68 -10 0 -19 28 -19 56 0
16 -4 23 -11 18 -7 -4 -9 -24 -6 -50 5 -49 -3 -55 -26 -21 -16 22 -16 21 -16
-18 0 -22 3 -57 8 -77 9 -38 9 -38 -22 -35 -24 1 -32 -2 -35 -18 -2 -15 -1
-17 6 -6 13 19 32 5 32 -23 0 -15 -19 -44 -51 -76 l-51 -52 28 -29 c15 -16 35
-29 43 -29 9 1 29 21 45 46 16 25 34 47 40 49 6 2 20 6 31 10 11 4 45 7 76 6
33 -2 60 2 64 9 4 7 -1 9 -19 4 -41 -10 -55 8 -15 21 19 7 44 26 57 46 13 19
35 40 50 48 15 8 22 16 15 18 -7 2 -21 0 -32 -6 -11 -6 -26 -11 -33 -11 -25 1
24 29 76 44 28 8 60 22 71 31 l20 17 -20 -8 c-11 -4 -36 -8 -55 -10 l-35 -3
38 11 c20 7 36 16 34 22 -2 6 9 21 25 34 51 43 80 121 31 83 -30 -25 -39 -21
-23 9 7 12 8 38 4 65 -6 45 -7 45 -48 47 -106 4 -135 -8 -161 -67 -10 -22 -14
-25 -14 -11 -1 11 11 37 25 57 39 56 25 61 -23 8z m11 -221 c-4 -7 -48 -65
-97 -128 -50 -63 -95 -123 -101 -132 -11 -19 -40 -25 -34 -8 4 13 227 280 234
280 3 0 2 -6 -2 -12z"/>
<path d="M3300 641 c0 -88 4 -162 8 -165 4 -2 13 -1 20 3 9 6 12 48 10 162 -3
137 -5 154 -20 157 -17 3 -18 -10 -18 -157z"/>
<path d="M1955 773 c-56 -14 -93 -90 -74 -155 13 -48 51 -78 100 -78 53 0 85
17 104 55 48 103 -25 203 -130 178z m68 -48 c27 -19 34 -88 13 -120 -43 -66
-135 4 -106 81 19 51 57 67 93 39z"/>
<path d="M2460 773 c-30 -11 -50 -37 -50 -63 0 -33 22 -53 75 -70 55 -17 68
-29 54 -46 -17 -20 -63 -17 -84 6 -21 24 -55 26 -55 5 0 -32 47 -65 90 -65 66
0 100 24 100 71 0 31 -24 55 -65 64 -16 4 -40 14 -53 22 -19 11 -21 17 -11 29
16 20 42 18 69 -6 28 -24 39 -25 47 -4 13 33 -72 75 -117 57z"/>
<path d="M2332 753 c2 -10 10 -18 18 -18 8 0 16 8 18 18 2 12 -3 17 -18 17
-15 0 -20 -5 -18 -17z"/>
<path d="M2622 658 c3 -105 4 -113 23 -113 18 0 20 6 17 45 -4 53 21 96 50 85
13 -5 18 -22 20 -68 3 -54 5 -62 23 -62 17 0 20 8 23 58 2 42 -2 66 -14 84
-14 23 -21 25 -61 19 l-44 -6 3 33 c2 27 -1 33 -20 35 -23 3 -23 3 -20 -110z"/>
<path d="M3652 753 c5 -26 38 -29 38 -4 0 15 -6 21 -21 21 -14 0 -19 -5 -17
-17z"/>
<path d="M5900 736 c0 -34 0 -34 -40 -29 -48 7 -66 -6 -79 -54 -8 -26 -7 -44
4 -68 15 -38 30 -44 103 -42 l52 1 0 113 c0 106 -1 113 -20 113 -16 0 -20 -7
-20 -34z m-16 -72 c9 -8 16 -26 16 -39 0 -23 -23 -55 -40 -55 -16 0 -40 31
-40 51 0 28 18 59 35 59 7 0 21 -7 29 -16z"/>
<path d="M6184 762 c-6 -4 -14 -17 -18 -29 -4 -13 -12 -23 -17 -23 -13 0 -11
-28 2 -32 7 -2 12 -31 13 -68 1 -58 3 -65 21 -65 18 0 20 8 23 68 2 51 6 67
17 67 8 0 15 7 15 15 0 8 -7 15 -15 15 -23 0 -18 27 6 33 12 3 18 10 14 16 -7
12 -44 14 -61 3z"/>
<path d="M2133 694 c-2 -6 -3 -42 -1 -80 3 -61 5 -69 23 -69 17 0 20 8 23 57
3 59 18 83 45 72 12 -4 17 -22 19 -67 3 -54 5 -62 23 -62 18 0 20 7 20 73 0
53 -4 75 -15 82 -20 13 -131 8 -137 -6z"/>
<path d="M2330 625 c0 -78 2 -85 20 -85 18 0 20 7 20 85 0 78 -2 85 -20 85
-18 0 -20 -7 -20 -85z"/>
<path d="M2835 685 c-54 -53 -16 -145 60 -145 74 0 111 84 64 144 -28 36 -89
37 -124 1z m93 -38 c12 -24 11 -32 -3 -53 -20 -31 -44 -28 -64 7 -13 24 -13
29 3 53 21 33 46 30 64 -7z"/>
<path d="M3010 593 c0 -113 0 -114 23 -111 18 2 21 8 19 35 l-3 33 44 -6 c40
-6 46 -4 66 22 18 23 22 38 18 67 -8 62 -29 76 -103 75 l-64 -1 0 -114z m109
73 c17 -20 10 -77 -11 -90 -13 -8 -22 -6 -37 8 -25 23 -27 53 -4 78 19 22 36
23 52 4z"/>
<path d="M3477 692 c-10 -10 -17 -22 -17 -25 0 -11 38 -8 45 3 7 11 48 14 58
3 13 -12 -15 -33 -44 -33 -30 0 -69 -30 -69 -53 0 -30 34 -45 98 -44 l62 2 0
67 c0 47 -5 71 -16 82 -22 23 -96 21 -117 -2z m93 -85 c0 -20 -22 -37 -47 -37
-30 0 -30 28 0 40 32 13 47 12 47 -3z"/>
<path d="M3650 630 c0 -63 3 -82 15 -87 9 -3 18 -4 20 -2 2 2 5 40 6 84 2 75
1 80 -19 83 -21 3 -22 0 -22 -78z"/>
<path d="M3832 698 c-16 -16 -15 -53 1 -66 6 -6 28 -14 47 -19 43 -11 55 -43
16 -43 -14 0 -28 5 -31 10 -10 15 -45 12 -45 -5 0 -37 97 -48 130 -15 37 37
18 73 -44 84 -19 4 -38 11 -41 16 -10 16 26 24 46 12 10 -7 26 -12 34 -12 21
0 19 27 -4 40 -27 14 -94 13 -109 -2z"/>
<path d="M3990 697 c0 -7 11 -44 23 -83 18 -52 29 -70 44 -72 26 -4 36 10 62
87 26 79 26 81 1 81 -15 0 -23 -12 -33 -47 -8 -27 -18 -46 -23 -44 -5 2 -15
23 -22 47 -9 33 -18 44 -32 44 -11 0 -20 -6 -20 -13z"/>
<path d="M4180 688 c-27 -30 -27 -91 1 -119 17 -17 29 -20 60 -16 39 5 44 1
33 -27 -7 -18 -49 -22 -59 -6 -9 15 -45 12 -45 -3 0 -18 43 -37 80 -37 55 0
70 28 70 133 l0 93 -60 1 c-50 2 -64 -2 -80 -19z m88 -20 c26 -26 8 -88 -24
-88 -19 0 -44 29 -44 50 0 21 25 50 44 50 6 0 17 -5 24 -12z"/>
<path d="M4471 684 c-67 -85 41 -194 119 -121 l25 22 -24 3 c-13 2 -28 -1 -34
-7 -17 -17 -45 -13 -57 9 -8 15 -8 20 2 21 7 0 33 1 58 2 37 2 46 6 48 23 2
11 -7 32 -18 47 -30 38 -90 38 -119 1z m87 -26 c3 -14 -3 -18 -27 -18 -29 0
-41 17 -24 34 13 13 48 1 51 -16z"/>
<path d="M4640 594 c0 -107 1 -114 20 -114 16 0 20 7 20 35 0 35 0 35 38 29
56 -9 85 18 85 79 0 69 -20 86 -99 85 l-64 -1 0 -113z m101 76 c34 -19 21
-100 -17 -100 -20 0 -44 30 -44 55 0 13 7 31 16 39 18 19 20 19 45 6z"/>
<path d="M4846 691 c-28 -31 -12 -59 42 -74 27 -8 47 -20 47 -28 0 -20 -42
-23 -61 -5 -18 19 -30 20 -40 4 -12 -18 35 -48 76 -48 41 0 70 24 70 57 0 27
-17 40 -62 48 -22 4 -38 13 -38 21 0 17 41 19 57 3 7 -7 19 -9 29 -5 16 6 16
8 -1 26 -25 27 -95 27 -119 1z"/>
<path d="M5104 695 c-3 -6 -3 -56 -2 -111 3 -91 5 -99 23 -99 16 0 20 7 20 32
0 32 0 32 41 26 36 -5 43 -2 62 22 34 43 23 128 -17 139 -31 9 -123 2 -127 -9z
m113 -41 c15 -24 15 -29 2 -53 -8 -14 -23 -26 -34 -26 -11 0 -26 12 -34 26
-13 24 -13 29 2 53 10 14 24 26 32 26 8 0 22 -12 32 -26z"/>
<path d="M5303 694 c-2 -6 -3 -42 -1 -80 3 -61 5 -69 23 -69 17 0 20 8 23 57
3 59 18 83 45 72 12 -4 17 -22 19 -67 3 -54 5 -62 23 -62 17 0 20 8 23 58 5
88 -11 107 -89 104 -35 -1 -63 -6 -66 -13z"/>
<path d="M5505 687 c-22 -31 -20 -100 5 -122 15 -14 29 -16 61 -11 34 6 40 4
37 -10 -5 -28 -33 -40 -61 -25 -13 7 -33 11 -43 9 -18 -3 -17 -5 4 -26 33 -33
109 -26 134 12 4 6 8 52 8 102 l0 91 -65 1 c-56 1 -66 -2 -80 -21z m89 -23
c19 -18 20 -38 6 -65 -21 -38 -70 -17 -70 31 0 46 34 64 64 34z"/>
<path d="M5980 700 c0 -6 10 -24 22 -40 l21 -29 -26 -39 c-15 -21 -27 -41 -27
-45 0 -18 41 -4 59 19 l21 27 21 -27 c11 -14 29 -26 40 -26 25 0 24 6 -6 46
-30 39 -31 49 -5 81 11 14 20 30 20 34 0 18 -39 8 -54 -13 l-16 -22 -16 22
c-15 22 -54 31 -54 12z"/>
<path d="M1530 518 c-106 -9 -138 -22 -127 -51 4 -10 29 -16 87 -20 83 -5 114
-17 88 -33 -7 -5 -85 -11 -173 -14 l-160 -5 155 -8 c161 -8 205 -3 216 28 4 9
-2 25 -11 35 -15 17 -31 20 -97 20 -43 0 -78 4 -78 10 0 10 34 17 134 24 38 3
74 10 80 16 6 6 6 9 1 9 -6 -1 -57 -6 -115 -11z"/>
<path d="M1132 430 c-11 -45 -8 -47 36 -24 38 18 38 20 10 45 -32 26 -34 24
-46 -21z"/>
</g>
</svg>
